<svg width="1200" height="800" xmlns="http://www.w3.org/2000/svg">
  <defs>
    <linearGradient id="bgGradient" x1="0%" y1="0%" x2="100%" y2="100%">
      <stop offset="0%" style="stop-color:#2c3e50;stop-opacity:1" />
      <stop offset="50%" style="stop-color:#34495e;stop-opacity:1" />
      <stop offset="100%" style="stop-color:#2c3e50;stop-opacity:1" />
    </linearGradient>
    <radialGradient id="circleGradient" cx="50%" cy="50%" r="50%">
      <stop offset="0%" style="stop-color:#f39c12;stop-opacity:0.1" />
      <stop offset="100%" style="stop-color:#f39c12;stop-opacity:0" />
    </radialGradient>
    <pattern id="gridPattern" x="0" y="0" width="40" height="40" patternUnits="userSpaceOnUse">
      <path d="M 40 0 L 0 0 0 40" fill="none" stroke="#f39c12" stroke-width="0.5" opacity="0.1"/>
    </pattern>
  </defs>
  
  <!-- Background -->
  <rect width="100%" height="100%" fill="url(#bgGradient)"/>
  
  <!-- Grid Pattern -->
  <rect width="100%" height="100%" fill="url(#gridPattern)"/>
  
  <!-- Decorative Circles -->
  <circle cx="100" cy="100" r="80" fill="url(#circleGradient)"/>
  <circle cx="1100" cy="700" r="120" fill="url(#circleGradient)"/>
  <circle cx="300" cy="600" r="60" fill="url(#circleGradient)"/>
  
  <!-- Scales of Justice (Simplified) -->
  <g transform="translate(900, 200)" opacity="0.15">
    <!-- Central Column -->
    <rect x="48" y="100" width="4" height="200" fill="#f39c12"/>
    <rect x="40" y="80" width="20" height="20" fill="#f39c12"/>
    
    <!-- Left Scale -->
    <ellipse cx="20" cy="120" rx="25" ry="8" fill="none" stroke="#f39c12" stroke-width="2"/>
    <line x1="20" y1="120" x2="50" y2="120" stroke="#f39c12" stroke-width="2"/>
    
    <!-- Right Scale -->
    <ellipse cx="80" cy="120" rx="25" ry="8" fill="none" stroke="#f39c12" stroke-width="2"/>
    <line x1="80" y1="120" x2="50" y2="120" stroke="#f39c12" stroke-width="2"/>
    
    <!-- Decorative Elements -->
    <circle cx="20" cy="115" r="3" fill="#f39c12"/>
    <circle cx="80" cy="115" r="3" fill="#f39c12"/>
  </g>
  
  <!-- Abstract Legal Documents -->
  <g transform="translate(150, 400)" opacity="0.1">
    <rect x="0" y="0" width="60" height="80" fill="#f39c12" rx="5"/>
    <rect x="5" y="10" width="50" height="2" fill="#2c3e50"/>
    <rect x="5" y="20" width="40" height="2" fill="#2c3e50"/>
    <rect x="5" y="30" width="45" height="2" fill="#2c3e50"/>
    <rect x="5" y="40" width="35" height="2" fill="#2c3e50"/>
    <rect x="5" y="50" width="50" height="2" fill="#2c3e50"/>
    <rect x="5" y="60" width="30" height="2" fill="#2c3e50"/>
  </g>
  
  <!-- More Abstract Elements -->
  <g transform="translate(1000, 100)" opacity="0.08">
    <rect x="0" y="0" width="80" height="100" fill="#f39c12" rx="8"/>
    <rect x="10" y="15" width="60" height="3" fill="#2c3e50"/>
    <rect x="10" y="25" width="50" height="3" fill="#2c3e50"/>
    <rect x="10" y="35" width="55" height="3" fill="#2c3e50"/>
    <rect x="10" y="45" width="40" height="3" fill="#2c3e50"/>
    <rect x="10" y="55" width="60" height="3" fill="#2c3e50"/>
    <rect x="10" y="65" width="45" height="3" fill="#2c3e50"/>
    <rect x="10" y="75" width="50" height="3" fill="#2c3e50"/>
  </g>
  
  <!-- Subtle Geometric Patterns -->
  <g opacity="0.05">
    <polygon points="50,50 100,50 75,100" fill="#f39c12"/>
    <polygon points="1150,150 1200,150 1175,200" fill="#f39c12"/>
    <polygon points="200,650 250,650 225,700" fill="#f39c12"/>
  </g>
</svg> 